<?xml version="1.0" standalone="no"?>
<!DOCTYPE svg PUBLIC "-//W3C//DTD SVG 20010904//EN"
 "http://www.w3.org/TR/2001/REC-SVG-20010904/DTD/svg10.dtd">
<svg version="1.0" xmlns="http://www.w3.org/2000/svg"
 width="2574.000000pt" height="2574.000000pt" viewBox="0 0 2574.000000 2574.000000"
 preserveAspectRatio="xMidYMid meet">
<metadata>
Created by potrace 1.11, written by Peter Selinger 2001-2013
</metadata>
<g transform="translate(0.000000,2574.000000) scale(0.100000,-0.100000)"
fill="#000000" stroke="none">
<path d="M2726 15868 c-28 -68 -57 -139 -65 -158 -8 -19 -15 -37 -16 -40 -1
-3 -5 -14 -10 -25 -4 -11 -19 -47 -32 -80 -34 -85 -53 -127 -63 -147 -6 -10
-10 -23 -10 -30 0 -7 -13 -41 -30 -76 -16 -34 -29 -65 -30 -67 0 -3 -7 -21
-15 -41 -8 -20 -15 -39 -15 -41 0 -3 -6 -19 -14 -36 -16 -37 -37 -89 -100
-247 -26 -63 -51 -124 -55 -135 -16 -37 -66 -160 -67 -165 0 -3 -8 -22 -17
-42 -10 -21 -17 -40 -17 -43 0 -3 -9 -27 -21 -53 -44 -101 -49 -113 -49 -127
0 -8 -4 -15 -8 -15 -5 0 -9 -6 -10 -12 0 -12 -110 -288 -131 -333 -6 -11 -62
-150 -126 -310 -64 -159 -122 -304 -130 -322 -8 -17 -15 -34 -15 -38 0 -4 -7
-21 -15 -38 -8 -18 -24 -57 -35 -87 -12 -30 -27 -68 -35 -85 -7 -16 -27 -64
-43 -105 -17 -41 -56 -138 -87 -215 -32 -77 -65 -160 -75 -185 -29 -76 -170
-423 -186 -457 -7 -17 -14 -34 -14 -38 0 -4 -7 -23 -16 -43 -9 -21 -20 -46
-25 -57 -12 -28 -64 -158 -153 -380 -42 -104 -80 -199 -85 -210 -21 -46 -36
-91 -33 -97 1 -5 -3 -8 -8 -8 -6 0 -10 -7 -10 -16 0 -9 -6 -28 -14 -42 -8 -15
-26 -58 -41 -97 -16 -38 -34 -83 -40 -100 -7 -16 -20 -50 -30 -75 -9 -25 -23
-58 -30 -75 -8 -16 -46 -111 -86 -210 -39 -99 -80 -199 -90 -222 -11 -23 -19
-49 -19 -57 0 -9 -4 -16 -10 -16 -5 0 -10 -6 -10 -14 0 -7 -14 -46 -31 -87
-51 -122 -51 -117 0 -170 86 -88 236 -251 244 -265 6 -10 26 -14 65 -14 31 1
79 1 107 1 27 0 51 2 54 5 2 2 10 -1 18 -7 7 -6 13 -8 13 -3 0 5 24 8 52 7 29
-2 77 -4 106 -5 28 -2 52 -1 52 2 0 3 30 4 67 2 88 -3 166 -2 172 4 2 2 10 -1
18 -7 7 -6 13 -8 13 -3 0 5 24 8 52 7 29 -2 77 -4 106 -5 28 -2 52 -1 52 2 0
3 27 5 60 5 33 0 60 -4 60 -8 0 -5 4 -6 9 -3 8 6 215 10 236 6 6 -1 13 -2 17
-1 15 2 133 3 143 1 6 -1 13 -2 17 -1 15 2 133 3 143 1 6 -1 13 -2 17 -1 13 2
133 3 138 1 14 -4 120 -4 120 0 0 3 30 4 67 2 89 -3 166 -2 172 4 2 2 10 -1
18 -7 7 -6 13 -8 13 -3 0 5 24 8 52 7 29 -2 77 -4 106 -5 28 -2 52 -1 52 2 0
3 30 4 67 2 89 -3 166 -2 172 4 2 2 10 -1 18 -7 7 -6 13 -8 13 -3 0 5 24 8 52
7 29 -2 77 -4 106 -5 28 -2 52 -1 52 2 0 3 27 5 60 5 33 0 60 -4 60 -8 0 -5 4
-6 9 -3 7 5 188 9 251 5 8 0 44 0 80 0 36 1 72 1 80 0 8 0 44 0 80 0 36 1 72
1 80 0 8 0 44 0 80 1 36 0 91 0 123 -2 31 -2 57 -1 57 2 0 3 30 4 67 2 100 -4
165 -2 174 4 5 3 9 0 9 -6 0 -6 5 -8 12 -4 11 7 54 7 171 1 26 -1 47 0 47 3 0
5 72 4 188 -2 28 -2 52 -1 52 2 0 5 60 4 188 -2 28 -2 52 -1 52 2 0 5 118 4
130 0 3 -1 9 -2 13 -1 8 1 211 2 237 0 8 0 44 0 80 0 36 1 72 1 80 0 8 0 44 0
80 0 36 1 72 1 80 0 8 0 44 0 80 1 36 0 91 0 123 -2 31 -2 57 -1 57 2 0 5 72
4 188 -2 28 -2 52 -1 52 2 0 5 60 4 188 -2 28 -2 52 -1 52 2 0 5 72 4 188 -2
28 -2 52 -1 52 2 0 5 60 4 188 -2 28 -2 52 -1 52 2 0 5 118 4 130 0 3 -1 9 -2
13 -1 8 1 211 2 237 0 8 0 44 0 80 0 36 1 72 1 80 0 8 0 44 0 80 0 36 1 72 1
80 0 8 0 44 0 80 1 36 0 91 0 123 -2 31 -2 57 -1 57 2 0 5 72 4 188 -2 28 -2
52 -1 52 2 0 5 60 4 188 -2 28 -2 52 -1 52 2 0 5 72 4 188 -2 28 -2 52 -1 52
2 0 5 60 4 188 -2 28 -2 52 -1 52 2 0 5 118 4 130 0 3 -1 9 -2 13 -1 8 1 211
2 237 0 8 0 44 0 80 0 36 1 72 1 80 0 8 0 44 0 80 0 36 1 72 1 80 0 8 0 44 0
80 0 36 1 72 1 80 1 8 -1 51 -1 95 0 44 0 99 -1 123 -2 23 -2 42 -1 42 2 0 5
90 4 193 -2 26 -2 47 -1 47 2 0 3 30 4 67 2 38 -1 73 -3 78 -3 6 0 44 0 85 1
41 0 96 -1 123 -2 26 -2 47 -1 47 2 0 3 33 4 72 2 96 -4 160 -2 170 4 4 3 8 0
8 -6 0 -6 5 -8 12 -4 12 8 166 7 205 0 12 -3 31 -10 42 -16 12 -6 21 -9 21 -6
0 2 16 0 36 -6 329 -90 901 -92 1334 -4 25 6 207 53 225 59 6 2 24 8 40 12
106 29 357 143 421 191 17 13 36 24 42 24 6 0 12 4 14 8 2 4 31 29 64 54 101
78 284 275 284 307 0 6 4 11 8 11 10 0 69 122 106 220 l25 65 -4 -60 c-3 -33
-8 -96 -11 -140 -13 -162 -10 -216 12 -288 13 -38 29 -76 38 -86 9 -10 16 -22
16 -28 0 -22 146 -160 210 -200 103 -63 226 -119 335 -152 200 -59 297 -70
605 -66 232 3 330 7 415 20 118 17 134 20 235 39 8 2 29 6 45 10 17 4 50 12
75 18 139 32 375 132 530 224 110 65 177 105 198 121 22 16 23 16 18 -13 -5
-33 -14 -107 -21 -174 -2 -25 -7 -66 -10 -92 -7 -55 -15 -53 135 -49 25 1 83
1 130 1 47 1 90 1 95 1 6 0 44 0 85 0 41 -1 82 -1 90 -1 8 1 78 0 155 0 77 -1
148 -1 157 -1 10 1 21 14 26 34 6 17 24 69 40 113 17 45 28 85 25 88 -4 3 0 6
7 6 7 0 11 3 7 6 -3 3 3 25 13 48 10 23 20 60 23 82 4 21 13 84 22 140 8 55
16 113 17 127 4 43 18 31 20 -15 1 -47 2 -50 12 -93 42 -171 151 -336 280
-424 67 -47 206 -106 292 -126 10 -2 46 -11 79 -19 33 -8 76 -17 95 -20 19 -3
46 -8 60 -10 27 -5 114 -16 170 -22 228 -24 1008 -24 1137 0 10 2 45 7 78 11
33 3 83 11 110 16 28 6 64 13 80 15 42 7 230 61 290 83 56 21 207 91 215 100
3 3 37 27 75 53 132 89 214 190 364 446 39 67 73 122 75 122 2 0 2 -10 0 -22
-1 -13 -5 -41 -8 -63 -3 -22 -8 -65 -11 -95 -3 -30 -8 -68 -10 -85 -3 -16 -7
-55 -10 -85 -3 -30 -7 -71 -9 -90 -22 -176 -29 -241 -30 -280 l-1 -45 450 -1
c248 0 455 2 462 4 7 2 27 27 45 55 18 29 41 61 50 71 10 11 20 28 24 38 3 10
10 18 15 18 5 0 9 7 9 15 0 8 5 15 10 15 6 0 10 5 10 10 0 6 17 34 39 63 39
53 45 74 56 192 4 33 8 78 10 100 3 22 7 65 9 95 3 30 8 75 11 100 7 59 14
122 20 190 3 30 8 78 10 105 8 75 14 134 20 195 2 30 7 75 10 100 3 25 7 65
10 90 21 190 65 425 92 491 22 55 194 174 317 219 132 49 243 65 431 64 89 0
150 -6 194 -17 128 -34 255 -114 302 -189 13 -21 27 -38 31 -38 5 0 8 -9 8
-19 0 -11 4 -21 8 -23 9 -3 51 -133 57 -176 3 -15 7 -38 10 -52 6 -27 6 -258
1 -350 -11 -181 -17 -269 -21 -300 -2 -19 -7 -73 -10 -120 -4 -47 -8 -103 -10
-125 -2 -22 -7 -80 -10 -130 -4 -49 -8 -106 -10 -125 -2 -19 -7 -78 -10 -130
-4 -52 -9 -113 -11 -135 -9 -103 -17 -214 -18 -255 l-1 -45 469 0 468 0 62 70
c33 38 63 72 66 75 3 3 35 38 70 79 36 41 75 86 88 99 12 14 22 32 23 41 0 9
2 32 4 51 2 19 6 87 9 150 4 63 9 133 11 155 2 22 6 94 10 160 4 66 9 145 11
175 4 55 7 96 19 315 4 66 8 136 10 155 27 272 25 718 -4 840 -4 19 -9 40 -9
45 -6 34 -28 94 -61 165 -80 174 -270 350 -491 457 -79 38 -215 88 -271 98
-13 3 -46 9 -74 15 -27 5 -70 12 -95 15 -25 3 -62 8 -83 11 -46 7 -351 7 -422
0 -86 -8 -196 -23 -205 -26 -3 -1 -8 -2 -12 -1 -34 4 -327 -93 -392 -130 -11
-6 -40 -23 -65 -37 -73 -40 -153 -93 -190 -126 -74 -67 -156 -151 -154 -158 2
-5 -2 -8 -8 -8 -10 0 -8 75 6 185 9 66 17 153 21 205 2 30 4 55 4 55 2 0 7 47
15 125 8 92 12 131 19 192 3 26 8 78 11 115 3 38 8 78 10 91 2 12 7 57 10 100
4 42 8 88 10 102 2 14 6 59 10 100 3 41 8 86 10 100 2 14 7 58 10 98 5 56 4
72 -7 73 -18 1 -838 1 -864 0 -17 -1 -41 -42 -129 -217 -60 -119 -109 -228
-110 -243 -2 -25 -11 -109 -21 -181 -2 -19 -6 -55 -8 -80 -3 -25 -7 -61 -10
-80 -3 -19 -8 -62 -11 -95 -4 -33 -9 -76 -11 -95 -3 -19 -7 -57 -9 -85 -3 -27
-9 -86 -15 -130 -17 -132 -31 -245 -35 -285 -3 -39 -19 -174 -21 -182 -1 -5
-2 -20 -3 -35 -1 -37 -11 -23 -16 23 -4 48 -24 106 -52 160 -72 135 -309 307
-528 382 -45 16 -185 49 -240 57 -211 31 -350 40 -635 40 -292 -1 -416 -10
-635 -46 -93 -15 -294 -65 -345 -86 -8 -4 -17 -7 -20 -8 -65 -17 -252 -108
-333 -161 -63 -42 -201 -170 -255 -237 -50 -62 -95 -163 -163 -363 -39 -115
-72 -216 -74 -224 -2 -8 -8 -26 -13 -40 -27 -70 -34 -223 -14 -330 22 -119 73
-211 159 -289 49 -45 174 -131 190 -131 5 0 17 -6 27 -13 14 -10 -35 -12 -265
-12 l-282 0 -13 -30 c-6 -16 -22 -63 -35 -102 -13 -40 -26 -73 -29 -73 -7 0
-4 42 5 80 3 14 8 43 11 65 6 48 33 230 39 265 2 14 9 57 15 95 5 39 12 81 14
95 3 14 10 61 16 106 6 44 12 90 14 101 3 11 7 44 11 74 3 30 8 71 11 93 37
276 -2 547 -104 711 -26 42 -156 175 -172 175 -5 0 -15 6 -22 14 -8 7 -30 21
-48 31 -19 10 -43 25 -54 34 -10 9 -19 14 -20 12 0 -2 -28 9 -61 24 -104 47
-120 54 -147 59 -14 2 -35 9 -45 14 -28 15 -166 48 -238 58 -22 2 -51 7 -65 9
-27 4 -149 14 -265 20 -92 6 -575 6 -645 0 -104 -7 -205 -16 -235 -20 -106
-14 -142 -20 -240 -41 -108 -24 -211 -54 -270 -78 -16 -7 -46 -19 -65 -27 -95
-36 -231 -118 -343 -207 -159 -125 -258 -254 -322 -417 -14 -34 -20 -67 -30
-160 -3 -33 -8 -78 -10 -100 -3 -22 -7 -65 -10 -97 -2 -31 -6 -62 -7 -70 -2
-10 25 -14 127 -18 l130 -5 -50 -19 c-27 -10 -54 -22 -60 -26 -5 -4 -41 -24
-80 -45 -126 -68 -264 -183 -350 -290 -77 -97 -110 -155 -149 -268 -13 -37
-26 -70 -29 -73 -3 -3 -3 26 0 64 l5 69 -479 0 c-397 1 -482 -2 -501 -14 -12
-7 -20 -18 -17 -22 2 -5 -2 -14 -10 -21 -8 -7 -15 -18 -15 -25 0 -8 -3 -15 -7
-17 -5 -2 -19 -23 -32 -48 -14 -25 -27 -47 -31 -50 -3 -3 -15 -19 -25 -37 -49
-77 -181 -203 -214 -203 -5 0 -11 -4 -13 -8 -5 -13 -167 -80 -223 -92 -97 -22
-132 -25 -300 -25 -282 0 -391 29 -506 136 -63 59 -131 180 -124 221 2 13 6
41 9 63 14 99 52 247 85 330 74 185 170 336 290 456 89 89 203 179 227 179 8
0 14 4 14 9 0 19 146 72 270 97 120 25 401 23 442 -2 7 -5 18 -9 25 -10 36 -6
131 -65 181 -115 52 -50 100 -126 115 -184 16 -57 22 -144 14 -189 -1 -8 128
-11 485 -12 484 0 487 0 492 20 3 12 8 59 11 106 4 47 8 95 10 108 8 51 19
212 19 277 -1 71 -3 93 -23 177 -19 84 -96 258 -113 258 -4 0 -8 6 -8 13 0 12
-22 40 -91 115 -98 107 -369 244 -542 276 -16 3 -43 9 -60 15 -18 5 -50 12
-71 16 -21 3 -48 8 -60 10 -22 5 -66 9 -226 21 -112 9 -445 9 -582 0 -139 -8
-182 -13 -343 -40 -16 -3 -66 -15 -110 -26 -44 -12 -87 -23 -95 -25 -8 -2 -15
-4 -15 -5 0 -1 -7 -3 -15 -5 -51 -11 -212 -75 -320 -128 -98 -48 -290 -170
-298 -189 -2 -4 -8 -8 -13 -8 -9 0 -22 -10 -133 -106 -70 -61 -186 -178 -186
-189 0 -3 -9 -15 -20 -27 -38 -41 -46 -52 -93 -125 -41 -63 -157 -281 -157
-295 0 -3 -7 -22 -15 -42 -8 -20 -15 -38 -15 -41 0 -3 -7 -21 -15 -41 -18 -43
-53 -183 -61 -248 l-7 -46 -1110 0 c-611 0 -1107 4 -1101 8 5 5 29 24 54 43
25 19 54 41 65 51 11 9 61 48 110 87 50 39 96 76 104 83 8 7 71 57 140 111 69
55 128 103 129 108 2 5 10 9 17 9 7 0 15 3 17 8 2 4 23 23 48 42 25 19 47 37
50 40 3 3 25 21 50 41 87 68 195 154 200 159 3 3 21 17 40 30 19 14 42 32 50
40 9 9 33 29 55 45 22 17 49 37 60 47 11 9 146 116 300 238 154 122 292 233
307 246 15 13 30 24 33 24 3 0 13 8 23 18 10 9 32 27 48 39 16 13 40 32 54 43
14 11 99 78 190 150 91 72 178 142 194 156 16 13 43 34 60 46 17 12 33 25 36
28 3 4 26 23 51 42 26 19 60 47 75 62 16 14 34 26 41 26 6 0 13 4 15 9 2 4 30
30 63 57 77 62 55 44 245 194 91 71 171 135 179 141 20 17 123 100 161 129 18
14 41 32 51 41 10 8 30 24 44 35 15 10 39 29 53 42 15 13 48 39 73 58 46 36
46 36 83 178 21 77 39 148 41 156 1 8 8 35 15 60 7 25 14 52 15 60 2 8 18 71
35 140 18 69 33 132 35 140 2 8 15 58 29 110 58 225 87 336 91 355 2 11 14 56
25 100 19 73 20 96 14 280 -4 110 -6 208 -6 218 1 16 -235 17 -4821 17 l-4822
0 -49 -122z m7109 -1389 c3 -4 -9 -17 -27 -30 -18 -13 -105 -80 -194 -149 -89
-69 -174 -135 -190 -147 -75 -57 -271 -210 -284 -221 -8 -7 -42 -33 -75 -57
-33 -25 -73 -56 -90 -69 -26 -21 -87 -68 -175 -135 -14 -11 -51 -40 -82 -65
-32 -25 -62 -46 -68 -46 -5 0 -10 -4 -10 -8 0 -4 -23 -25 -51 -46 -28 -21 -58
-44 -67 -51 -10 -8 -102 -80 -207 -160 -104 -81 -203 -157 -220 -170 -16 -14
-59 -47 -95 -75 -36 -27 -69 -53 -75 -58 -5 -4 -26 -19 -45 -32 -19 -13 -39
-29 -45 -36 -5 -6 -68 -55 -140 -110 -71 -54 -153 -116 -181 -139 -78 -62
-109 -86 -244 -189 -209 -161 -244 -189 -248 -198 -2 -5 -10 -8 -17 -8 -7 0
-15 -3 -17 -8 -1 -4 -52 -46 -113 -92 -60 -47 -114 -88 -120 -92 -5 -5 -35
-27 -65 -50 -30 -24 -57 -45 -60 -48 -3 -3 -43 -34 -90 -70 -47 -35 -86 -68
-88 -72 -2 -4 -10 -8 -17 -8 -7 0 -15 -4 -17 -8 -1 -4 -64 -55 -138 -112 -74
-58 -141 -110 -148 -117 -7 -7 -16 -13 -20 -13 -4 0 -21 -13 -37 -28 -17 -16
-49 -41 -73 -57 -23 -15 -42 -32 -42 -36 0 -5 -5 -9 -11 -9 -6 0 -16 -6 -24
-12 -54 -52 59 -48 -1389 -48 l-1334 0 30 78 c16 42 31 84 33 92 2 8 15 43 29
77 14 35 26 69 26 78 0 8 4 15 8 15 5 0 9 6 9 13 0 9 127 356 168 460 7 16 86
17 1465 17 l1458 0 48 143 c26 78 49 147 50 152 1 6 37 114 79 240 42 127 79
237 81 245 5 19 103 320 111 340 4 8 5 22 4 30 -2 15 -63 186 -80 225 -5 11
-22 53 -38 94 l-28 74 -1282 0 c-706 0 -1283 2 -1283 6 0 7 9 31 150 411 56
151 108 280 114 285 14 11 5470 15 5481 4z m10095 -2364 c96 -10 247 -44 304
-69 83 -37 129 -84 150 -153 6 -20 4 -21 -26 -18 -79 10 -212 31 -303 46 -33
6 -73 12 -90 14 -16 2 -75 11 -130 20 -55 9 -109 18 -120 19 -80 11 -208 43
-248 61 l-48 23 43 16 c57 21 129 36 203 43 33 3 61 6 63 8 4 4 122 -2 202
-10z m-3360 -9 c108 -13 140 -20 215 -43 44 -14 94 -32 110 -40 38 -19 125
-76 125 -83 0 -3 -44 -5 -98 -6 -273 -3 -834 -18 -1039 -28 -57 -3 -103 -3
-103 -1 0 2 23 20 52 40 86 62 227 121 333 140 17 2 41 7 55 10 14 3 57 8 95
11 39 4 71 7 72 8 4 4 135 -2 183 -8z m4965 -95 c-3 -10 -8 -38 -10 -62 -3
-24 -8 -69 -11 -99 -3 -30 -8 -68 -10 -85 -2 -16 -6 -57 -9 -90 -3 -33 -8 -67
-10 -75 -2 -8 -7 -42 -10 -75 -3 -33 -7 -69 -10 -80 -2 -11 -4 -27 -4 -35 -1
-8 -14 8 -31 36 -16 29 -53 76 -82 106 -54 56 -182 148 -206 148 -7 0 -11 4
-8 8 3 4 55 8 116 8 96 -1 111 1 116 17 3 9 9 17 14 17 4 0 11 12 14 26 4 14
17 42 30 62 12 20 38 66 56 102 35 67 49 90 57 90 2 0 2 -8 -2 -19z m-4605
-978 c0 -8 -7 -16 -15 -19 -8 -4 -15 -12 -15 -19 0 -7 -4 -15 -9 -17 -5 -1
-34 -26 -63 -54 -57 -54 -183 -145 -238 -170 -8 -4 -28 -17 -45 -28 -16 -12
-31 -20 -32 -19 -2 2 -29 -9 -60 -23 -197 -87 -397 -130 -588 -128 -210 2
-336 24 -450 80 -76 36 -109 62 -143 111 l-22 31 50 45 c89 80 262 151 460
187 102 19 107 20 250 26 74 4 136 7 137 8 1 1 177 1 392 2 323 0 391 -2 391
-13z m2231 -118 c31 -4 56 -8 140 -21 15 -2 47 -6 70 -9 24 -3 62 -8 84 -11
22 -4 51 -8 65 -9 49 -6 126 -16 185 -25 33 -5 87 -12 120 -16 58 -6 237 -35
300 -48 50 -11 133 -56 155 -84 l21 -26 -53 -17 c-125 -41 -236 -53 -483 -53
-165 0 -260 5 -367 19 -130 17 -253 127 -307 276 -11 31 -5 42 20 34 9 -3 32
-8 50 -10z"/>
</g>
</svg>
